<?xml version="1.0" encoding="UTF-8"?>
<svg id="Layer_1" xmlns="http://www.w3.org/2000/svg" version="1.1" viewBox="0 0 1200 299">
  <!-- Generator: Adobe Illustrator 30.1.0, SVG Export Plug-In . SVG Version: 2.1.1 Build 136)  -->
  <g>
    <polygon points="102.55 265.94 100.55 268.29 99.54 155.25 204.54 35.91 261.04 85.88 160.91 199.62 102.55 265.94"/>
    <polygon points="85.91 271.5 32.64 225.2 31.67 27.5 84.8 74.16 85.91 271.5"/>
    <polygon points="204.02 270.76 160.33 220.04 196.98 181.39 274.58 271.37 204.02 270.76"/>
  </g>
  <g>
    <path d="M332.1,131.49c-5.21-2.63-11.23-3.95-18.06-3.95-5.63,0-10.85.96-15.64,2.88-4.79,1.92-8.96,4.4-12.49,7.46-3.54,3.06-6.2,6.38-8,9.98l7.19,3.78c2.88-4.91,6.89-8.87,12.04-11.86,5.15-2.99,10.78-4.49,16.9-4.49,8.03,0,14.47,2.13,19.32,6.38,4.85,4.26,7.28,9.92,7.28,16.99v5.7l-36.67,6.17c-7.55,1.2-13.57,3.3-18.06,6.29-4.49,3-7.73,6.5-9.71,10.52-1.98,4.02-2.97,8.18-2.97,12.49,0,5.27,1.38,9.92,4.13,13.93,2.76,4.01,6.44,7.13,11.05,9.35,4.61,2.22,9.8,3.33,15.55,3.33,6.11,0,11.68-1.08,16.72-3.24,5.03-2.16,9.35-4.97,12.94-8.45,3.12-3.01,5.42-6.22,7.01-9.6v19.13h8.09v-65.61c0-6.11-1.47-11.5-4.4-16.18-2.94-4.67-7.01-8.33-12.22-10.96ZM323.65,213.63c-5.33,3.47-11.66,5.21-18.96,5.21-6.59,0-12.1-1.74-16.54-5.21-4.43-3.47-6.65-8.21-6.65-14.2,0-5.03,1.86-9.53,5.57-13.48,3.71-3.95,10.25-6.71,19.59-8.27l33.97-5.63v9.41c0,6.59-1.5,12.73-4.49,18.42-3,5.69-7.16,10.28-12.49,13.75Z"/>
    <path d="M496.65,131.85c-5.27-2.88-10.96-4.31-17.08-4.31-7.79,0-14.74,2.25-20.85,6.74-4.89,3.59-8.33,8.06-10.38,13.38-2.45-5.51-6.17-10.04-11.19-13.56-6.23-4.37-13.06-6.56-20.49-6.56-6.95,0-13.15,1.8-18.6,5.39-4.25,2.8-7.44,6.33-9.62,10.58v-13.82h-8.09v94.54h8.09v-57.52c0-5.87,1.11-11.17,3.32-15.91,2.22-4.73,5.39-8.51,9.53-11.33,4.13-2.81,9.02-4.22,14.65-4.22,4.91,0,9.44,1.14,13.57,3.42,4.13,2.28,7.46,5.48,9.98,9.62,2.52,4.13,3.78,9.08,3.78,14.83v61.11h8.09v-57.52c0-5.87,1.11-11.17,3.33-15.91,2.22-4.73,5.39-8.51,9.53-11.33,4.13-2.81,9.02-4.22,14.65-4.22,4.91,0,9.44,1.14,13.57,3.42,4.13,2.28,7.46,5.48,9.98,9.62,2.52,4.13,3.78,9.08,3.78,14.83v61.11h8.09v-62.01c0-6.95-1.62-13.03-4.85-18.24-3.24-5.21-7.49-9.26-12.76-12.13Z"/>
    <path d="M611.95,134.01c-7.13-4.31-15.25-6.47-24.36-6.47s-17.08,2.16-24.27,6.47c-7.19,4.31-12.88,10.18-17.08,17.61-4.2,7.43-6.29,15.88-6.29,25.34s2.09,17.77,6.29,25.25c4.19,7.49,9.89,13.39,17.08,17.7,7.19,4.31,15.28,6.47,24.27,6.47s17.22-2.16,24.36-6.47c7.13-4.31,12.79-10.21,16.99-17.7,4.19-7.49,6.29-15.91,6.29-25.25s-2.1-17.91-6.29-25.34c-4.2-7.43-9.86-13.3-16.99-17.61ZM621.39,198.17c-3.48,6.35-8.15,11.36-14.02,15.01-5.87,3.65-12.46,5.48-19.77,5.48s-13.9-1.83-19.77-5.48c-5.87-3.65-10.55-8.66-14.02-15.01-3.48-6.35-5.21-13.42-5.21-21.21s1.71-15.01,5.12-21.3c3.42-6.29,8.09-11.26,14.02-14.92,5.93-3.65,12.55-5.48,19.86-5.48s14.08,1.83,19.95,5.48c5.87,3.66,10.51,8.63,13.93,14.92,3.41,6.29,5.12,13.39,5.12,21.3s-1.74,14.86-5.21,21.21Z"/>
    <path d="M694.54,217.59c-4.56,0-7.94-.87-10.16-2.61-2.22-1.73-3.66-3.86-4.31-6.38-.66-2.52-.99-4.85-.99-7.01v-64.71h20.49v-7.19h-20.49v-22.29h-8.09v12.58c0,3.36-.72,5.81-2.16,7.37-1.44,1.56-3.72,2.34-6.83,2.34h-8.99v7.19h17.97v64.71c0,7.91,1.98,13.84,5.93,17.79,3.95,3.95,9.59,5.93,16.9,5.93.72,0,1.89-.09,3.51-.27s3.02-.45,4.22-.81v-7.19c-.84.12-1.98.24-3.41.36-1.44.12-2.64.18-3.6.18Z"/>
    <rect x="729.23" y="129.69" width="8.09" height="94.54"/>
    <rect x="729.23" y="90.33" width="8.09" height="19.77"/>
    <path d="M836.98,134.01c-7.13-4.31-15.25-6.47-24.36-6.47s-17.08,2.16-24.27,6.47c-7.19,4.31-12.88,10.18-17.08,17.61-4.2,7.43-6.29,15.88-6.29,25.34s2.09,17.77,6.29,25.25c4.19,7.49,9.89,13.39,17.08,17.7,7.19,4.31,15.28,6.47,24.27,6.47s17.22-2.16,24.36-6.47c7.13-4.31,12.79-10.21,16.99-17.7,4.19-7.49,6.29-15.91,6.29-25.25s-2.1-17.91-6.29-25.34c-4.2-7.43-9.86-13.3-16.99-17.61ZM846.42,198.17c-3.48,6.35-8.15,11.36-14.02,15.01-5.87,3.65-12.46,5.48-19.77,5.48s-13.9-1.83-19.77-5.48c-5.87-3.65-10.55-8.66-14.02-15.01-3.48-6.35-5.21-13.42-5.21-21.21s1.71-15.01,5.12-21.3c3.42-6.29,8.09-11.26,14.02-14.92,5.93-3.65,12.55-5.48,19.86-5.48s14.08,1.83,19.95,5.48c5.87,3.66,10.51,8.63,13.93,14.92,3.41,6.29,5.12,13.39,5.12,21.3s-1.74,14.86-5.21,21.21Z"/>
    <path d="M942.76,131.85c-5.39-2.88-11.26-4.31-17.61-4.31-7.55,0-14.17,1.95-19.86,5.84-4.05,2.77-7.12,6.17-9.26,10.17v-13.86h-8.09v94.54h8.09v-57.52c0-5.87,1.11-11.17,3.32-15.91,2.22-4.73,5.45-8.51,9.71-11.33,4.25-2.81,9.37-4.22,15.37-4.22,5.27,0,10.03,1.14,14.29,3.42,4.25,2.28,7.64,5.48,10.16,9.62,2.52,4.13,3.78,9.08,3.78,14.83v61.11h8.09v-62.01c0-6.95-1.65-13.03-4.94-18.24-3.3-5.21-7.64-9.26-13.03-12.13Z"/>
    <rect x="993.08" y="208.06" width="9.89" height="16.18"/>
    <rect x="1037.3" y="90.33" width="8.09" height="19.77"/>
    <rect x="1037.3" y="129.69" width="8.09" height="94.54"/>
    <path d="M1162.04,151.62c-4.2-7.43-9.86-13.3-16.99-17.61-7.13-4.31-15.25-6.47-24.36-6.47s-17.08,2.16-24.27,6.47c-7.19,4.31-12.88,10.18-17.08,17.61-4.2,7.43-6.29,15.88-6.29,25.34s2.1,17.77,6.29,25.25c4.19,7.49,9.89,13.39,17.08,17.7,7.19,4.31,15.28,6.47,24.27,6.47s17.22-2.16,24.36-6.47c7.13-4.31,12.79-10.21,16.99-17.7,4.19-7.49,6.29-15.91,6.29-25.25s-2.1-17.91-6.29-25.34ZM1154.49,198.17c-3.48,6.35-8.15,11.36-14.02,15.01-5.87,3.65-12.46,5.48-19.77,5.48s-13.9-1.83-19.77-5.48c-5.87-3.65-10.55-8.66-14.02-15.01-3.48-6.35-5.21-13.42-5.21-21.21s1.71-15.01,5.12-21.3c3.42-6.29,8.09-11.26,14.02-14.92,5.93-3.65,12.55-5.48,19.86-5.48s14.08,1.83,19.95,5.48c5.87,3.66,10.51,8.63,13.93,14.92,3.42,6.29,5.12,13.39,5.12,21.3s-1.74,14.86-5.21,21.21Z"/>
  </g>
</svg>